# xmcd CD database file
#
# Track frame offsets:
#	150
#	23374
#	41770
#	67146
#	100536
#	114207
#	127759
#
# Disc length: 2309 seconds
#
# Revision: 0
# Processed by: cddbd v1.5.1PL0 Copyright (c) Steve Scherf et al.
# Submitted via: CDex 1.50
#
DISCID=4a090307
DTITLE=Jazz and Jazz - Philip Glass
DYEAR=2004
DGENRE=Jazz
TTITLE0=Serra Pelada
TTITLE1=Sand Mandala
TTITLE2=Perpetual Motion
TTITLE3=Caught!
TTITLE4=Osamu's Theme:Kyoko's House
TTITLE5=Mishima - Closing
TTITLE6=Escape to India
EXTD=YEAR: 2004
EXTT0=
EXTT1=
EXTT2=
EXTT3=
EXTT4=
EXTT5=
EXTT6=
PLAYORDER=
